<svg viewBox="0 0 350 189.00998494762732" preserveAspectRatio="xMidYMid meet" class="css-8aabad" id="fgffhbbb">
    <defs id="SvgjsDefs1001"></defs>
    <g id="SvgjsG1007" featurekey="symbolFeature-0"
        transform="matrix(1.6005853144887838,0,0,1.6005853144887838,92.91237963171173,-29.577210067227774)" fill="#111">
        <path xmlns="http://www.w3.org/2000/svg"
            d="M31.805,41.953c0-5.497,2.443-10.57,6.546-14.639c-0.238-0.004-0.474-0.013-0.712-0.013  c-16.615,0-30.087,9.948-30.087,22.221c0,9.36,7.837,17.36,18.926,20.634l-0.585,12.604l8.693-11.016c0,0,1.642,0,3.053,0  c7.925,0,15.129-2.267,20.502-5.965C43.185,63.725,31.805,53.826,31.805,41.953z">
        </path>
        <g xmlns="http://www.w3.org/2000/svg">
            <path
                d="M76.966,82.062l-11.95-15.139h-2.081c-17.693,0-32.089-10.865-32.089-24.223c0-13.355,14.396-24.221,32.089-24.221   c17.691,0,32.085,10.866,32.085,24.221c0,9.637-7.348,18.172-18.857,22.078L76.966,82.062z M62.935,22.48   c-15.487,0-28.089,9.071-28.089,20.221c0,11.15,12.602,20.223,28.089,20.223h4.021l5.437,6.889l-0.369-7.949l1.504-0.443   C84.153,58.281,91.02,50.934,91.02,42.701C91.02,31.551,78.421,22.48,62.935,22.48z">
            </path>
        </g>
    </g>
    <g id="SvgjsG1008" featurekey="nameFeature-0"
        transform="matrix(2.2983977068929686,0,0,2.2983977068929686,0,96.8902028387881)" fill="#111">
        <path
            d="M5.36 39.92 c-2.96 0 -5.36 -2.4 -5.36 -5.36 l0 -17.76 c0 -2.96 2.4 -5.36 5.36 -5.36 s5.36 2.4 5.36 5.36 l0 1.6 l-3.8 0 l0 -1.6 c0 -0.84 -0.72 -1.56 -1.56 -1.56 s-1.56 0.72 -1.56 1.56 l0 17.76 c0 0.84 0.72 1.56 1.56 1.56 s1.56 -0.72 1.56 -1.56 l0 -2.56 l3.8 0 l0 2.56 c0 2.96 -2.4 5.36 -5.36 5.36 z M25.708 40.08 l-4.08 0 l-2.2 -6.04 l-0.88 0 l0 6.04 l-3.8 0 l0 -28.64 l5.96 0 c2.64 0 4.76 2.12 4.76 4.76 l0 13.08 c0 1.72 -0.88 3.2 -2.24 4.04 z M18.548 15.24 l0 15 l2.16 0 c0.52 0 0.96 -0.44 0.96 -0.96 l0 -13.08 c0 -0.52 -0.44 -0.96 -0.96 -0.96 l-2.16 0 z M39.056 24.92 l-5.52 0 l0 11.28 l5.56 0 l0 3.8 l-9.36 0 l0 -28.56 l9.36 0 l0 3.8 l-5.56 0 l0 5.88 l5.52 0 l0 3.8 z M52.844 40 l-1.44 -9.88 l-4.04 0 l-1.32 9.88 l-3.84 0 l4.32 -28.6 l5.16 0 l5 28.6 l-3.84 0 z M47.884 26.32 l2.96 0 l-1.52 -10.4 z M70.512 11.36 l0 3.84 l-4.76 0 l0 24.84 l-3.84 0 l0 -24.84 l-5.24 0 l0 -3.84 l13.84 0 z M77.86 11.36 l0 28.48 l-3.8 0 l0 -28.48 l3.8 0 z M89.848 40 l-3.96 0 l-4 -28.56 l3.84 0 l2.08 14.72 l1.92 -14.72 l3.84 0 z M106.636 24.92 l-5.52 0 l0 11.28 l5.56 0 l0 3.8 l-9.36 0 l0 -28.56 l9.36 0 l0 3.8 l-5.56 0 l0 5.88 l5.52 0 l0 3.8 z M117.904 11.44 l3.8 0 l0 28.52 l-3.8 0 l0 -15.08 l-3.4 0 l0 15.08 l-3.8 0 l0 -28.52 l3.8 0 l0 9.68 l3.4 0 l0 -9.68 z M131.612 40.08 c-3.24 0 -5.88 -2.64 -5.88 -5.88 l0 -22.72 l3.8 0 l0 22.72 c0 1.16 0.92 2.12 2.08 2.12 s2.08 -0.96 2.08 -2.12 l0 -22.72 l3.8 0 l0 22.72 c0 3.24 -2.64 5.88 -5.88 5.88 z M150.84 23.04 c0.88 0.88 1.44 2.08 1.44 3.4 l0 8.76 c0 2.64 -2.16 4.8 -4.8 4.8 l-5.92 0 l-0.04 -28.48 l5.28 0 c2.92 0.12 4.64 2.92 4.6 5.56 l-0.04 3.96 c0 0.72 -0.2 1.4 -0.52 2 z M147.48 36.16 c0.56 0 1 -0.44 1 -0.96 l-0.04 -8.76 c0 -0.56 -0.44 -0.96 -0.96 -0.96 l-2.12 0 l0 10.68 l2.12 0 z M145.32 15.32 l0 6.32 l1.6 0 c0.32 0 0.64 -0.28 0.64 -0.64 l0.04 -3.96 c0 -0.8 -0.4 -1.68 -0.96 -1.72 l-1.32 0 z">
        </path>
    </g>
</svg>